<?xml version="1.0" encoding="utf-8"?>
<!-- Generator: Adobe Illustrator 26.3.1, SVG Export Plug-In . SVG Version: 6.00 Build 0)  -->
<svg version="1.1" id="Layer_1" xmlns="http://www.w3.org/2000/svg" xmlns:xlink="http://www.w3.org/1999/xlink" x="0px" y="0px"
	 viewBox="0 0 841.9 595.3" style="enable-background:new 0 0 841.9 595.3;" xml:space="preserve">
<style type="text/css">
	.st0{fill:#CAE4EF;}
	.st1{fill:#142D3F;}
	.st2{fill:#2B3D4F;}
	.st3{fill:#3D1334;stroke:#271226;stroke-miterlimit:10;}
</style>
<g>
	<g>
		<circle class="st0" cx="551.7" cy="269.3" r="166.8"/>
	</g>
	<g>
		<path class="st1" d="M82.4,137.7h93v35.5h-31.5v213h-30.1v-213H82.4V137.7z"/>
		<path class="st1" d="M218.6,242.4h41.3v35.5h-41.3v72.8h52v35.5h-82.1V137.7h82.1v35.5h-52V242.4z"/>
		<path class="st1" d="M376.4,293.5v33c0,39.8-15.3,62.5-44.9,62.5c-29.5,0-44.9-22.7-44.9-62.5V197.3c0-39.8,15.3-62.5,44.9-62.5
			c29.5,0,44.9,22.7,44.9,62.5v24.1H348v-26.6c0-17.7-6-24.5-15.6-24.5c-9.6,0-15.6,6.7-15.6,24.5V329c0,17.8,6,24.1,15.6,24.1
			c9.6,0,15.6-6.4,15.6-24.1v-35.5H376.4z"/>
		<path class="st1" d="M424.8,386.1h-30.1V137.7h30.1v106.5H459V137.7h30.6v248.5H459V279.6h-34.2V386.1z"/>
	</g>
	<g>
		<path class="st2" d="M596.6,366.8l-0.3,23.3l-88.1-1l0.3-23.3l37.8,0.4l0.3-26.4l-37.8-0.4l0.3-23.7l88.1,1l-0.3,23.7l-37.8-0.4
			l-0.3,26.4L596.6,366.8z"/>
		<path class="st2" d="M509.5,276.7l68,0.7c6.3,0.1,8.6-4.6,8.7-12c0.1-7.4-2.1-12.1-8.4-12.1l-68-0.7l0.2-22l67.1,0.7
			c14.1,0.2,22,12.1,21.8,34.9s-8.4,34.6-22.5,34.4l-67.1-0.7L509.5,276.7z"/>
		<path class="st2" d="M531.1,145.4l3.1,0c9.1,0.1,14.7,4.8,17.5,15.2l0.3,0c3-12.4,9.6-17.2,18.9-17.1l7.2,0.1
			c13.6,0.1,20.8,12.3,20.5,35.5l-0.4,36.6l-88.1-1l0.4-35.1C510.8,155.5,517.6,145.2,531.1,145.4z M523,191.6l23.3,0.3l0.1-9.1
			c0.1-8.7-2.1-14-9.2-14.1l-4.9-0.1c-6.3-0.1-9.1,3.5-9.2,11.7L523,191.6z M558.8,192l27.1,0.3L586,179c0.1-7.8-2-12.1-8.6-12.1
			l-7.7-0.1c-8.2-0.1-10.7,4.3-10.9,14.9L558.8,192z"/>
	</g>
	<g>
		<path class="st3" d="M516.7,484.8c-3.4,0-5.7-0.3-6.9-0.9c-1.2-0.6-1.8-1.4-1.8-2.5c0-0.7,0.9-1.9,2.8-3.6
			c1.8-1.7,3.1-2.5,3.7-2.5c1,0,1.4,0.2,1.4,0.6c0,0.3-0.2,0.6-0.6,0.9c-0.4,0.3-0.6,0.6-0.6,0.8c0,0.3,0.5,0.6,1.5,0.9
			c1,0.3,2.2,0.5,3.7,0.5c3.4,0,6.7-0.6,10.1-1.8c3.4-1.2,6.2-2.7,8.3-4.6c2.2-1.9,3.2-3.9,3.2-6c0-2-0.7-3.7-2-4.9
			c-1.4-1.2-3.1-2.1-5.1-2.7c-2-0.6-5.4-1.4-10.2-2.4c-5.3-1.1-9.4-2.1-12.3-3c-2.9-0.9-5.2-2-7-3.3c-1.8-1.3-2.6-3-2.6-5
			c0-3.6,1.9-6.9,5.6-10c3.8-3,8.1-5.4,12.9-7.1c4.9-1.7,8.6-2.6,11.3-2.6c2.7,0,4.1,0.8,4.1,2.3c0,0.9-0.3,1.9-1,3
			c-0.6,1.1-1.6,1.6-2.9,1.6c-0.5,0-1-0.2-1.6-0.5c-0.6-0.3-1.1-0.5-1.7-0.5c-1.6,0-4.1,0.5-7.5,1.5c-3.4,1-6.5,2.5-9.3,4.4
			c-2.8,2-4.2,4.3-4.2,7.1c0,1.8,1.1,3.2,3.3,4c2.2,0.9,6.3,1.9,12.3,3.2c0.7,0.2,1.4,0.4,2.2,0.5c0.7,0.1,1.4,0.2,1.9,0.4
			c6.1,1.4,10.9,2.9,14.1,4.6c3.3,1.7,4.9,4.3,4.9,7.8c0,3.3-1.4,6.5-4.2,9.6c-2.8,3.1-6.6,5.5-11.2,7.4
			C526.5,483.8,521.7,484.8,516.7,484.8z"/>
		<path class="st3" d="M595.1,442.2c-1,6.6-1.5,10.4-1.6,11.2c-1,9.3-1.8,16.4-2.2,21.2c-0.4,4.9-0.7,9.3-0.7,13.2
			c0,3.2,0.3,5.8,0.8,7.7c0.5,1.9,1.1,3.4,1.7,4.5c0.6,1.1,0.9,1.8,0.9,2c0,0.7-0.6,1.3-1.9,1.8c-1.3,0.5-2.6,0.8-4,0.8
			c-1,0-1.9-1.3-2.5-4c-0.6-2.6-0.9-6.8-0.9-12.3c0-4.2,0.4-9.9,1.3-17.1l1.8-15.6c-2.2,3.9-4.8,7.7-8,11.3
			c-3.2,3.6-6.4,5.4-9.8,5.4c-3.1,0-5.9-2.6-8.4-7.7c-2.5-5.1-4.4-11-5.8-17.4c-1.4-6.5-2.1-11.3-2.1-14.3c0-1.9,0.6-2.8,1.8-2.8
			c1.8,0,2.9,1.5,3.4,4.6c3,21,7.3,31.5,12.7,31.5c2.2,0,4-0.8,5.7-2.4c1.6-1.6,3.6-4.1,5.8-7.5c1-1.6,2.2-3.7,3.4-6.3
			c1.2-2.6,2.1-4.8,2.8-6.6l0.8-11.4c0.2-1.7,0.4-3,0.7-3.7c0.3-0.7,1-1.1,1.9-1.1c0.8,0,1.6,0.4,2.4,1.3c0.8,0.9,1.2,1.7,1.2,2.5
			C596.4,432.6,596,436.4,595.1,442.2z"/>
		<path class="st3" d="M650.5,403.4c0,1.5-0.1,4.5-0.2,8.9c-0.2,4.4-0.2,8.9-0.2,13.3c0,8.6,0.2,17.4,0.6,26.3
			c0.4,9,0.7,14.8,1,17.6c0,0.5,0,0.9,0.1,1.5c0.1,0.5,0.2,1,0.2,1.5c0.3,2.1,0.5,3.4,0.5,3.9c0,0.8-0.6,1.5-1.7,2.2
			c-1.2,0.7-2.1,1-2.7,1c-0.9,0-1.5-0.3-1.7-1c-0.3-0.6-0.4-1.5-0.4-2.7c0-4.2,0.1-8.5,0.4-13l0.1-6.3c0-2.1,0-4.9-0.1-8.3
			c-0.1-3.4-0.2-6.3-0.4-8.7c-4.1,12.4-8.7,22.6-13.8,30.8c-5.1,8.1-10.7,12.2-16.7,12.2c-2.7,0-5-1.2-6.9-3.6
			c-1.9-2.4-2.8-5.9-2.8-10.4c0-6,2.1-12.5,6.4-19.5c4.3-7,9.1-13.1,14.6-18.1c5.5-5.1,9.5-7.6,12.2-7.6c2.6,0,3.8,0.8,3.8,2.4
			c0,1.1-0.4,2.3-1.1,3.7c-0.8,1.4-1.6,2.7-2.5,3.8c-0.9,1.1-1.5,1.7-1.6,1.7c-0.2,0-0.3-0.1-0.5-0.2c-0.2-0.1-0.3-0.2-0.3-0.4
			c0-0.4,0.2-1,0.6-1.9c0.4-0.9,0.6-1.5,0.6-1.8c0-0.4,0-0.6-0.1-0.8c-0.1-0.2-0.3-0.2-0.7-0.2c-1.7,0-4.7,2.2-9,6.5
			c-4.4,4.3-8.2,9.5-11.7,15.5c-3.4,6-5.1,11.5-5.1,16.7c0,1.8,0.4,3.5,1.2,5.1c0.8,1.6,2.1,2.4,4,2.4c5.8,0,11.2-4.7,16.2-14
			c5-9.3,9.3-19.9,13-31.8l-0.2-9.5c-0.2-8.4-0.4-12.8-0.4-13.4c0-4.5,0.2-7.8,0.6-9.7c0.2-0.8,0.3-1.3,0.5-1.6
			c0.2-0.3,0.6-0.5,1.3-0.5c0.8,0,1.6,0.2,2.4,0.7c0.8,0.5,1.2,1.2,1.2,2L650.5,403.4z"/>
	</g>
</g>
</svg>
